<svg width="24" height="24" viewBox="0 0 24 24" fill="none" xmlns="http://www.w3.org/2000/svg">
<path d="M22.58 7.35L12.475 1.897C12.178 1.737 11.821 1.737 11.525 1.897L1.42502 7.35C0.939018 7.614 0.758018 8.22 1.02002 8.706C1.20002 9.041 1.54502 9.231 1.90002 9.231C2.06002 9.231 2.22402 9.193 2.37502 9.111L3.10902 8.715L4.69902 19.965C4.91502 21.179 6.00902 22.027 7.35902 22.027H16.641C17.991 22.027 19.085 21.179 19.303 19.939L20.891 8.714L21.628 9.112C22.113 9.375 22.72 9.194 22.982 8.708C23.245 8.222 23.062 7.615 22.578 7.353L22.58 7.35ZM12 15.435C10.205 15.435 8.75002 13.98 8.75002 12.185C8.75002 10.39 10.205 8.935 12 8.935C13.795 8.935 15.25 10.39 15.25 12.185C15.25 13.98 13.795 15.435 12 15.435Z" fill="#08090E"/>
</svg>
